<svg xmlns="http://www.w3.org/2000/svg">
    <style>:root svg:not(:target) {display: none}</style>


    <svg id="cross" xmlns="http://www.w3.org/2000/svg" viewBox="0 0 25 25" fill="none">
        <path d="M9.74655 12.4992L0.399389 3.15163C0.142275 2.89431 0.000406265 2.55102 0 2.18496C0 1.8187 0.141869 1.475 0.399389 1.21809L1.2185 0.399187C1.47602 0.14126 1.81931 0 2.18577 0C2.55163 0 2.89492 0.14126 3.15244 0.399187L12.4996 9.74614L21.8472 0.399187C22.1043 0.14126 22.4478 0 22.814 0C23.1799 0 23.5234 0.14126 23.7805 0.399187L24.6 1.21809C25.1333 1.75142 25.1333 2.6189 24.6 3.15163L15.2526 12.4992L24.6 21.8463C24.8573 22.1041 24.999 22.4474 24.999 22.8134C24.999 23.1795 24.8573 23.5228 24.6 23.7803L23.7807 24.5992C23.5236 24.8569 23.1799 24.9984 22.8142 24.9984C22.448 24.9984 22.1045 24.8569 21.8474 24.5992L12.4998 15.252L3.15264 24.5992C2.89512 24.8569 2.55183 24.9984 2.18597 24.9984H2.18557C1.81951 24.9984 1.47622 24.8569 1.2187 24.5992L0.399593 23.7803C0.142481 23.523 0.000610352 23.1795 0.000610352 22.8134C0.000610352 22.4474 0.142481 22.1041 0.399593 21.8465L9.74655 12.4992Z"
              fill="white"/>
    </svg>
</svg>